# xmcd
#
# Track frame offsets:
#	150
#	23093
#	37833
#	52503
#	66471
#	83065
#	104989
#	125962
#	146916
#	169474
#	180638
#
# Disc length: 2607 seconds
#
# Revision: 0
# Processed by: cddbd v1.5.2PL0 Copyright (c) Steve Scherf et al.
# Submitted via: audiograbber 1.83.01
#
DISCID=9f0a2d0b
DTITLE=Mona Kosasih - Tuhan Penolongku
DYEAR=1900
DGENRE=Gospel
TTITLE0=Tuhan Penolongku
TTITLE1=Kasih Mama
TTITLE2=Mazmur 95
TTITLE3=Kusadari
TTITLE4=Karna Kasih Allah
TTITLE5=Pengakuanku
TTITLE6=Bersyukur
TTITLE7=Jalan Tuhan
TTITLE8=Salib Kudus
TTITLE9=Mari Maju Bersama
TTITLE10=Kasih Mama (Instrumental)
EXTD=
EXTT0=
EXTT1=
EXTT2=
EXTT3=
EXTT4=
EXTT5=
EXTT6=
EXTT7=
EXTT8=
EXTT9=
EXTT10=
PLAYORDER=
